<svg version="1.1" id="Layer_1" xmlns="http://www.w3.org/2000/svg" xmlns:xlink="http://www.w3.org/1999/xlink" x="0px" y="0px"
	 width="100%" viewBox="0 0 512 512" enable-background="new 0 0 512 512" xml:space="preserve">
<path fill="#000000" opacity="1.000000" stroke="none" 
	d="
M1.000006,474.000000 
	C1.000000,329.309998 1.000000,184.620026 1.361872,39.368855 
	C2.120875,38.296181 2.713597,37.843018 2.886153,37.264526 
	C6.090697,26.521404 11.826979,17.374830 21.339418,11.372476 
	C27.825462,7.279778 35.085842,4.414234 42.000000,1.000000 
	C185.023331,1.000000 328.046661,1.000000 471.659668,1.375964 
	C484.509125,4.083354 494.778534,10.107486 501.831726,20.242828 
	C506.446625,26.874384 509.337128,34.705936 513.000000,42.000000 
	C513.000000,185.023331 513.000000,328.046661 512.624023,471.659668 
	C509.916565,484.509125 503.892609,494.778595 493.757141,501.831696 
	C487.125549,506.446533 479.294037,509.337097 472.000000,513.000000 
	C328.976685,513.000000 185.953354,513.000000 42.340332,512.624023 
	C27.576956,509.352448 16.564589,501.783569 9.008614,489.492065 
	C5.972601,484.553314 3.648262,479.177094 1.000006,474.000000 
M435.999756,433.319519 
	C435.999847,386.327332 436.260101,339.332489 435.783966,292.345123 
	C435.686890,282.765350 433.736694,272.945984 431.034027,263.707092 
	C426.047607,246.661682 415.998077,232.764389 402.098114,221.475037 
	C386.474854,208.786072 368.666473,202.045349 348.792023,201.155151 
	C339.578400,200.742447 330.546356,203.023270 321.861694,206.523895 
	C310.358643,211.160538 300.045715,217.415558 291.739227,226.751190 
	C288.740845,230.121094 285.666840,233.423706 281.976746,237.470505 
	C281.976746,226.466537 281.976746,216.416855 281.976746,206.207703 
	C256.515442,206.207703 231.446686,206.207703 206.198334,206.207703 
	C206.198334,282.811340 206.198334,359.207275 206.198334,435.801575 
	C231.465408,435.801575 256.534149,435.801575 282.000000,435.801575 
	C282.000000,433.988708 282.000000,432.366882 282.000000,430.745087 
	C282.000000,388.752197 282.033325,346.759308 281.981079,304.766479 
	C281.963928,290.957642 286.074188,279.142090 297.219055,270.224640 
	C306.488831,262.807556 317.344940,259.749054 328.389130,262.441223 
	C348.504944,267.344788 359.902466,282.022461 359.963623,303.225677 
	C360.086121,345.718140 360.000000,388.211151 360.000000,430.703949 
	C360.000000,432.448822 360.000000,434.193695 360.000000,435.999908 
	C384.715393,435.999908 408.709412,436.022552 432.703003,435.927246 
	C433.802826,435.922882 434.898468,434.857574 435.999756,433.319519 
M154.000000,299.500000 
	C154.000000,268.405823 154.000000,237.311646 154.000000,206.288483 
	C128.355545,206.288483 103.284676,206.288483 78.286255,206.288483 
	C78.286255,282.978180 78.286255,359.379028 78.286255,435.711548 
	C103.644424,435.711548 128.715302,435.711548 154.000000,435.711548 
	C154.000000,390.448944 154.000000,345.474457 154.000000,299.500000 
M144.931351,151.588882 
	C146.575836,149.935104 148.319748,148.367996 149.848907,146.613693 
	C160.867691,133.972504 164.135971,119.468628 159.685699,103.371338 
	C156.878464,93.217155 151.098312,84.609337 142.237976,79.124756 
	C136.118958,75.337059 128.896103,72.217499 121.838531,71.286980 
	C105.795097,69.171654 91.983276,74.633507 81.286469,87.191460 
	C71.978882,98.118492 69.106461,111.061653 71.495270,124.646362 
	C73.483261,135.951706 79.513763,145.568832 89.079903,152.663803 
	C97.450310,158.871933 107.049698,161.897720 117.076500,161.749329 
	C126.926529,161.603561 136.358429,158.371170 144.931351,151.588882 
z"/>
<path fill="#FFFFFF" opacity="1.000000" stroke="none" 
	d="
M513.000000,41.531342 
	C509.337128,34.705936 506.446625,26.874384 501.831726,20.242828 
	C494.778534,10.107486 484.509125,4.083354 472.124664,1.375964 
	C485.593353,1.000000 499.186676,1.000000 513.000000,1.000000 
	C513.000000,14.353423 513.000000,27.708054 513.000000,41.531342 
z"/>
<path fill="#FFFFFF" opacity="1.000000" stroke="none" 
	d="
M472.468658,513.000000 
	C479.294037,509.337097 487.125549,506.446533 493.757141,501.831696 
	C503.892609,494.778595 509.916565,484.509125 512.624023,472.124695 
	C513.000000,485.593353 513.000000,499.186676 513.000000,513.000000 
	C499.646576,513.000000 486.291962,513.000000 472.468658,513.000000 
z"/>
<path fill="#FFFFFF" opacity="1.000000" stroke="none" 
	d="
M1.000006,474.468658 
	C3.648262,479.177094 5.972601,484.553314 9.008614,489.492065 
	C16.564589,501.783569 27.576956,509.352448 41.875320,512.624023 
	C28.408512,513.000000 14.817023,513.000000 1.000000,513.000000 
	C1.000000,500.313324 1.000000,487.625336 1.000006,474.468658 
z"/>
<path fill="#FFFFFF" opacity="1.000000" stroke="none" 
	d="
M41.531342,1.000000 
	C35.085842,4.414234 27.825462,7.279778 21.339418,11.372476 
	C11.826979,17.374830 6.090697,26.521404 2.886153,37.264526 
	C2.713597,37.843018 2.120875,38.296181 1.361872,38.903839 
	C1.000000,26.403898 1.000000,13.807796 1.000000,1.000000 
	C14.353482,1.000000 27.708082,1.000000 41.531342,1.000000 
z"/>
<path fill="#FFFFFF" opacity="1.000000" stroke="none" 
	d="
M435.997925,433.802948 
	C434.898468,434.857574 433.802826,435.922882 432.703003,435.927246 
	C408.709412,436.022552 384.715393,435.999908 360.000000,435.999908 
	C360.000000,434.193695 360.000000,432.448822 360.000000,430.703949 
	C360.000000,388.211151 360.086121,345.718140 359.963623,303.225677 
	C359.902466,282.022461 348.504944,267.344788 328.389130,262.441223 
	C317.344940,259.749054 306.488831,262.807556 297.219055,270.224640 
	C286.074188,279.142090 281.963928,290.957642 281.981079,304.766479 
	C282.033325,346.759308 282.000000,388.752197 282.000000,430.745087 
	C282.000000,432.366882 282.000000,433.988708 282.000000,435.801575 
	C256.534149,435.801575 231.465408,435.801575 206.198334,435.801575 
	C206.198334,359.207275 206.198334,282.811340 206.198334,206.207703 
	C231.446686,206.207703 256.515442,206.207703 281.976746,206.207703 
	C281.976746,216.416855 281.976746,226.466537 281.976746,237.470505 
	C285.666840,233.423706 288.740845,230.121094 291.739227,226.751190 
	C300.045715,217.415558 310.358643,211.160538 321.861694,206.523895 
	C330.546356,203.023270 339.578400,200.742447 348.792023,201.155151 
	C368.666473,202.045349 386.474854,208.786072 402.098114,221.475037 
	C415.998077,232.764389 426.047607,246.661682 431.034027,263.707092 
	C433.736694,272.945984 435.686890,282.765350 435.783966,292.345123 
	C436.260101,339.332489 435.999847,386.327332 435.997925,433.802948 
z"/>
<path fill="#FFFFFF" opacity="1.000000" stroke="none" 
	d="
M154.000000,300.000000 
	C154.000000,345.474457 154.000000,390.448944 154.000000,435.711548 
	C128.715302,435.711548 103.644424,435.711548 78.286255,435.711548 
	C78.286255,359.379028 78.286255,282.978180 78.286255,206.288483 
	C103.284676,206.288483 128.355545,206.288483 154.000000,206.288483 
	C154.000000,237.311646 154.000000,268.405823 154.000000,300.000000 
z"/>
<path fill="#FFFFFF" opacity="1.000000" stroke="none" 
	d="
M144.620575,151.781097 
	C136.358429,158.371170 126.926529,161.603561 117.076500,161.749329 
	C107.049698,161.897720 97.450310,158.871933 89.079903,152.663803 
	C79.513763,145.568832 73.483261,135.951706 71.495270,124.646362 
	C69.106461,111.061653 71.978882,98.118492 81.286469,87.191460 
	C91.983276,74.633507 105.795097,69.171654 121.838531,71.286980 
	C128.896103,72.217499 136.118958,75.337059 142.237976,79.124756 
	C151.098312,84.609337 156.878464,93.217155 159.685699,103.371338 
	C164.135971,119.468628 160.867691,133.972504 149.848907,146.613693 
	C148.319748,148.367996 146.575836,149.935104 144.620575,151.781097 
z"/>
</svg>