<?xml version="1.0" encoding="UTF-8"?>
<svg version="1.1" xmlns="http://www.w3.org/2000/svg" width="512" height="512">
<path d="M0 0 C3.42252649 2.91065303 6.72902631 5.92077304 10 9 C10.90492188 9.80824219 10.90492188 9.80824219 11.828125 10.6328125 C36.05989846 33.16609717 46.10638469 70.08670294 48 102 C48.18567435 108.90086589 48.12661701 115.80705554 48.11352539 122.7097168 C48.11324297 124.79998269 48.11340232 126.89024869 48.1139679 128.98051453 C48.11425373 134.62845211 48.10839164 140.27636828 48.10139394 145.92430091 C48.09512472 151.83664321 48.09455378 157.74898606 48.09336853 163.66133118 C48.09026572 174.84533203 48.08206651 186.02932306 48.07201904 197.2133196 C48.05873046 212.33464534 48.05334951 227.45597378 48.04751682 242.57730389 C48.0381259 266.38487661 48.01819996 290.19242861 48 314 C11.7 314 -24.6 314 -62 314 C-62.04898438 300.92632812 -62.09796875 287.85265625 -62.1484375 274.3828125 C-62.18384056 266.07942063 -62.21973134 257.77603556 -62.2578125 249.47265625 C-62.31810986 236.30551737 -62.37646813 223.13839119 -62.421875 209.97119141 C-62.45496164 200.37930707 -62.49488308 190.78747883 -62.54279006 181.19565666 C-62.56789045 176.1235042 -62.58971896 171.05138816 -62.60334396 165.97919083 C-62.61631545 161.1906631 -62.63852688 156.40226136 -62.66738319 151.61380386 C-62.67634261 149.87014135 -62.6821214 148.12645863 -62.68421364 146.38277435 C-62.71769014 122.68962147 -63.54985175 94.65714968 -81.16796875 76.6015625 C-94.24592766 65.16880525 -109.23611278 62.96683796 -126 64 C-141.56838085 66.20914455 -154.26022377 74.58148015 -163.875 86.875 C-175.33134396 103.11845912 -176.45097986 120.39227816 -176.43237305 139.625 C-176.44141226 141.53867211 -176.45174469 143.45233848 -176.46325684 145.36599731 C-176.49059953 150.50952963 -176.50008012 155.65295143 -176.50611091 160.79654694 C-176.51555435 166.19106847 -176.54176212 171.58550935 -176.56611633 176.97998047 C-176.60962186 187.17214684 -176.63826645 197.36429742 -176.66143972 207.55652809 C-176.69366163 221.34555999 -176.74910827 235.13449783 -176.80318546 248.9234581 C-176.8876507 270.61561059 -176.94131754 292.30772694 -177 314 C-213.3 314 -249.6 314 -287 314 C-287 204.77 -287 95.54 -287 -17 C-250.7 -17 -214.4 -17 -177 -17 C-176.67 -2.48 -176.34 12.04 -176 27 C-172.535 22.05 -172.535 22.05 -169 17 C-166.13926521 13.53089466 -163.08607941 10.26924599 -160 7 C-159.17242187 6.09314453 -159.17242187 6.09314453 -158.328125 5.16796875 C-119.13252424 -36.25906472 -42.91433144 -34.48248332 0 0 Z " fill="#000000" transform="translate(464,187)"/>
<path d="M0 0 C36.63 0 73.26 0 111 0 C111 109.23 111 218.46 111 331 C74.37 331 37.74 331 0 331 C0 221.77 0 112.54 0 0 Z " fill="#000000" transform="translate(6,170)"/>
<path d="M0 0 C13.18278019 11.42639181 19.81282198 24.87836802 21.4296875 42.26953125 C21.97843335 58.32949306 17.22143176 71.74421096 6.921875 84.01171875 C2.23559784 89.02879194 -2.89109259 92.53896967 -8.890625 95.82421875 C-9.59574219 96.22382812 -10.30085938 96.6234375 -11.02734375 97.03515625 C-27.18275432 105.22056427 -47.92521777 104.44754025 -64.890625 99.82421875 C-71.54756653 97.59201034 -77.24821613 93.95230465 -82.890625 89.82421875 C-83.509375 89.37304688 -84.128125 88.921875 -84.765625 88.45703125 C-94.50559206 80.76071799 -100.74008975 68.94564895 -102.890625 56.82421875 C-104.5430684 37.62474494 -102.05051308 21.87898128 -89.640625 6.63671875 C-67.67565584 -17.25500209 -25.42461386 -19.13717557 0 0 Z " fill="#000000" transform="translate(102.890625,23.17578125)"/>
</svg>
